<?xml version="1.0" standalone="no"?>
<!DOCTYPE svg PUBLIC "-//W3C//DTD SVG 20010904//EN"
 "http://www.w3.org/TR/2001/REC-SVG-20010904/DTD/svg10.dtd">
<svg version="1.0" xmlns="http://www.w3.org/2000/svg"
 width="612.000000pt" height="612.000000pt" viewBox="0 0 612.000000 612.000000"
 preserveAspectRatio="xMidYMid meet">

<g transform="translate(0.000000,612.000000) scale(0.100000,-0.100000)"
fill="#ff0798" stroke="none">
<path d="M2905 5343 c-222 -28 -473 -122 -655 -247 -93 -63 -263 -231 -318
-313 -117 -173 -172 -346 -172 -537 0 -82 -2 -92 -23 -111 -13 -11 -29 -30
-35 -41 -8 -16 -28 -25 -74 -34 -128 -25 -232 -99 -285 -204 -38 -73 -43 -180
-13 -258 45 -120 182 -226 305 -236 40 -3 56 -9 60 -21 3 -10 21 -33 41 -52
33 -32 39 -34 104 -34 67 0 71 1 107 38 l38 37 3 374 3 375 -30 33 -29 33 23
90 c124 483 514 788 1036 812 226 10 390 -21 574 -111 128 -63 220 -129 325
-236 120 -121 211 -271 265 -436 29 -88 32 -129 9 -142 -44 -25 -50 -117 -37
-557 l6 -229 34 -37 c37 -41 42 -77 19 -141 -18 -50 -156 -256 -216 -322 -81
-88 -249 -157 -514 -212 -124 -25 -130 -26 -158 -9 -87 51 -176 34 -231 -45
-23 -33 -22 -107 2 -146 59 -96 225 -92 276 6 16 31 16 31 165 65 126 29 280
84 389 137 85 42 118 65 180 127 127 126 258 344 268 448 5 47 11 61 35 82 17
13 33 34 38 46 7 18 19 23 64 28 118 12 236 95 292 204 25 51 29 69 29 143 0
103 -21 155 -92 231 -49 53 -165 119 -209 119 -42 0 -84 13 -84 25 0 7 -14 26
-30 42 -28 28 -31 35 -34 119 -25 536 -471 994 -1061 1089 -81 14 -310 18
-390 8z"/>
<path d="M2907 4810 c-123 -20 -294 -71 -387 -116 -172 -85 -290 -231 -337
-419 -14 -56 -17 -115 -18 -300 0 -205 3 -241 23 -333 54 -242 131 -407 278
-597 121 -157 241 -250 389 -301 69 -24 96 -28 200 -28 128 -1 197 15 310 72
206 103 412 372 510 666 65 194 79 287 79 516 1 237 -16 329 -81 453 -82 156
-274 296 -498 363 -78 23 -111 27 -250 30 -88 1 -186 -1 -218 -6z"/>
<path d="M2330 2431 c-105 -29 -458 -156 -667 -241 -266 -108 -342 -159 -417
-283 -58 -97 -65 -152 -62 -477 3 -231 6 -297 20 -349 34 -126 91 -203 189
-253 119 -60 70 -58 1680 -58 1600 0 1535 -2 1648 55 105 54 172 148 199 280
19 89 22 581 4 668 -25 127 -107 237 -229 308 -98 57 -496 217 -793 318 -247
85 -354 39 -547 -234 -47 -66 -130 -184 -186 -262 -55 -79 -104 -143 -109
-143 -4 0 -84 106 -177 235 -92 130 -185 259 -206 288 -118 161 -190 191 -347
148z"/>
</g>
</svg>
