<?xml version="1.0" standalone="no"?>
<!DOCTYPE svg PUBLIC "-//W3C//DTD SVG 20010904//EN"
 "http://www.w3.org/TR/2001/REC-SVG-20010904/DTD/svg10.dtd">
<svg version="1.0" xmlns="http://www.w3.org/2000/svg"
 width="600.000000pt" height="597.000000pt" viewBox="0 0 600.000000 597.000000"
 preserveAspectRatio="xMidYMid meet">

<g transform="translate(0.000000,597.000000) scale(0.100000,-0.100000)"
fill="#ff0798" stroke="none">
<path d="M2359 5960 c-51 -15 -80 -44 -131 -129 -28 -47 -103 -170 -165 -272
l-113 -186 -42 8 c-24 4 -164 31 -312 59 -241 47 -274 51 -310 40 -44 -13 -90
-50 -111 -90 -7 -14 -30 -163 -51 -330 -20 -168 -40 -309 -44 -313 -4 -4 -141
-39 -305 -77 -182 -43 -311 -78 -332 -91 -42 -26 -73 -85 -73 -140 0 -23 37
-163 85 -320 46 -153 85 -285 87 -293 2 -8 -99 -91 -251 -206 -213 -162 -256
-199 -272 -234 -23 -52 -24 -90 0 -141 10 -22 106 -141 212 -264 107 -123 195
-227 197 -232 2 -5 -64 -132 -147 -282 -140 -255 -151 -278 -151 -326 0 -108
22 -126 344 -277 149 -70 276 -130 282 -135 7 -6 3 -87 -12 -266 -30 -339 -30
-385 -2 -435 12 -21 38 -49 58 -61 33 -21 51 -22 355 -30 176 -5 323 -12 327
-15 4 -4 52 -137 108 -297 103 -298 118 -328 182 -361 60 -31 100 -20 403 107
l288 121 37 -38 c21 -22 116 -122 210 -224 95 -102 187 -194 204 -205 21 -14
47 -20 86 -20 38 0 65 6 87 20 17 11 124 120 238 243 115 122 211 222 214 222
3 0 134 -54 290 -120 299 -126 339 -137 399 -106 64 33 79 63 182 361 56 160
104 293 108 297 4 3 151 10 327 15 311 8 321 9 358 32 54 33 77 85 76 168 0
37 -10 184 -23 326 -15 178 -19 260 -12 266 6 4 130 64 275 132 146 68 278
134 293 147 41 35 58 74 58 133 0 48 -11 72 -151 325 -83 151 -149 278 -147
283 2 5 90 109 197 232 106 123 202 242 212 264 24 51 23 89 0 141 -16 35 -59
72 -273 234 -150 114 -252 198 -250 206 2 8 41 140 87 293 48 157 85 297 85
320 0 55 -31 114 -74 140 -21 13 -149 48 -332 91 -164 39 -301 74 -305 78 -3
4 -23 144 -43 312 -21 167 -44 316 -51 330 -22 42 -68 78 -115 90 -41 11 -73
6 -330 -43 -157 -31 -296 -57 -308 -59 -21 -3 -41 25 -178 252 -85 140 -167
269 -184 287 -35 38 -96 57 -151 48 -27 -5 -111 -57 -296 -186 -141 -99 -263
-177 -270 -174 -8 2 -124 82 -259 176 -273 190 -298 203 -375 179z m351 -589
l225 -156 65 0 65 0 225 156 c124 85 230 159 237 162 7 5 61 -76 154 -228 78
-130 155 -247 171 -260 60 -51 77 -51 380 7 153 28 280 50 282 47 3 -2 20
-126 39 -275 21 -162 41 -283 51 -301 21 -41 69 -80 114 -93 20 -6 142 -35
271 -64 128 -30 236 -57 239 -61 3 -3 -29 -121 -71 -263 -47 -156 -78 -274
-77 -301 0 -77 24 -103 265 -285 l223 -170 -61 -71 c-34 -40 -114 -132 -178
-206 -139 -161 -153 -184 -147 -253 4 -42 28 -92 136 -289 73 -130 132 -241
132 -245 0 -5 -111 -60 -247 -123 -158 -73 -258 -125 -278 -145 -54 -53 -56
-81 -29 -386 13 -150 21 -274 19 -276 -2 -3 -132 -8 -287 -11 -309 -7 -320 -9
-370 -69 -15 -18 -59 -129 -112 -283 -49 -140 -92 -257 -95 -262 -4 -4 -122
41 -262 100 -272 114 -311 124 -376 90 -17 -9 -116 -107 -219 -217 -103 -110
-190 -200 -194 -200 -3 0 -91 90 -194 200 -103 110 -202 208 -219 217 -65 34
-104 24 -376 -91 -140 -59 -257 -104 -261 -99 -4 4 -47 122 -96 262 -53 154
-97 265 -112 283 -50 60 -61 62 -370 69 -155 3 -285 8 -287 11 -2 2 6 127 19
277 26 304 24 332 -29 385 -20 20 -119 72 -278 145 -136 63 -247 118 -247 123
0 4 59 115 132 245 145 263 158 304 123 374 -10 19 -84 110 -164 203 -80 93
-160 185 -178 205 l-31 37 223 170 c241 182 265 208 265 285 1 27 -30 145 -77
301 -42 142 -75 260 -72 263 3 3 111 30 240 60 129 30 251 59 271 65 45 13 93
52 114 93 12 22 84 512 84 570 0 12 28 8 297 -43 288 -56 310 -56 371 -5 16
13 93 130 171 260 93 152 147 233 154 228 7 -3 113 -77 237 -162z"/>
<path d="M2790 4663 c-76 -9 -268 -56 -349 -85 -417 -147 -762 -454 -956 -851
-231 -474 -232 -1011 -1 -1482 233 -475 655 -801 1186 -917 92 -20 133 -23
330 -23 197 0 238 3 330 23 531 116 954 442 1186 917 230 471 230 1009 0 1480
-200 407 -553 718 -977 859 -190 63 -281 78 -509 81 -113 2 -221 1 -240 -2z
m434 -358 c484 -85 893 -436 1045 -899 52 -158 66 -245 65 -421 0 -177 -14
-266 -65 -421 -153 -466 -568 -820 -1051 -899 -120 -19 -317 -19 -438 0 -254
42 -505 167 -696 348 -541 512 -565 1352 -55 1890 196 205 464 352 737 401
107 19 349 20 458 1z"/>
<path d="M3500 3524 c-22 -9 -161 -141 -362 -342 l-328 -326 -142 140 c-104
103 -154 145 -182 154 -156 50 -287 -124 -197 -261 17 -24 119 -133 228 -241
160 -157 207 -198 238 -207 50 -14 60 -14 110 0 34 9 102 73 438 407 219 219
407 414 418 434 60 117 -28 259 -161 258 -14 -1 -41 -8 -60 -16z"/>
</g>
</svg>
