<?xml version="1.0" standalone="no"?>
<!DOCTYPE svg PUBLIC "-//W3C//DTD SVG 20010904//EN"
 "http://www.w3.org/TR/2001/REC-SVG-20010904/DTD/svg10.dtd">
<svg version="1.0" xmlns="http://www.w3.org/2000/svg"
 width="512.000000pt" height="512.000000pt" viewBox="0 0 512.000000 512.000000"
 preserveAspectRatio="xMidYMid meet">

<g transform="translate(0.000000,512.000000) scale(0.100000,-0.100000)"
fill="#ffffff" stroke="none">
<path d="M2575 5110 c-202 -31 -371 -172 -447 -376 -22 -57 -22 -73 -26 -514
l-3 -455 -736 3 c-494 2 -760 -1 -807 -8 -95 -14 -184 -58 -251 -121 -108
-102 -145 -204 -145 -401 0 -114 1 -117 26 -137 31 -25 61 -27 90 -6 19 13 22
27 27 147 2 74 11 149 18 170 34 90 122 174 209 198 21 6 322 10 777 10 725 0
744 0 797 -21 67 -25 133 -86 166 -154 l25 -50 3 -742 2 -743 -103 0 c-63 0
-123 -6 -154 -15 -104 -31 -197 -122 -226 -220 -11 -39 -27 -54 -189 -179 -98
-75 -180 -136 -183 -136 -3 0 -5 51 -5 113 0 82 -4 119 -14 133 -14 18 -33 19
-448 24 l-433 5 -56 26 c-69 33 -124 88 -158 159 l-26 55 -3 430 c-3 422 -3
430 -23 448 -28 23 -60 22 -93 -4 l-26 -20 0 -418 c0 -451 3 -477 56 -583 39
-77 120 -152 211 -196 l78 -37 397 -3 398 -3 0 -155 c0 -141 2 -156 20 -174
43 -43 68 -31 276 130 107 82 196 150 199 150 2 0 6 -210 7 -467 l3 -468 28
-56 c33 -69 99 -132 175 -167 57 -27 58 -27 330 -30 l272 -3 0 -103 c0 -110 6
-125 58 -141 28 -8 37 -3 212 134 l135 105 92 7 c118 9 194 42 259 111 70 75
87 123 92 256 2 61 1 123 -2 137 -11 45 -83 57 -120 19 -12 -12 -16 -37 -16
-108 0 -102 -10 -144 -47 -194 -39 -52 -76 -66 -193 -72 l-105 -5 -107 -83
c-58 -45 -109 -82 -112 -82 -3 0 -6 27 -6 59 0 43 -5 65 -19 82 l-19 24 -320
5 -320 5 -43 30 c-23 17 -52 48 -63 70 -20 39 -21 55 -24 558 -2 361 1 531 9
560 14 54 81 121 134 136 55 15 1035 15 1090 0 52 -15 119 -82 134 -134 6 -23
11 -126 11 -247 0 -195 1 -209 20 -228 26 -26 74 -26 100 0 20 20 21 30 18
263 -3 238 -3 243 -29 298 -34 72 -96 134 -168 168 l-56 26 -377 3 -378 3 0
194 c0 107 2 195 5 195 2 0 30 -7 62 -15 47 -12 141 -15 520 -15 l463 0 0
-196 c0 -107 4 -203 10 -213 15 -29 64 -45 90 -31 13 7 149 108 302 226 l280
214 150 0 c169 0 237 13 333 63 83 43 191 154 233 239 63 128 62 110 62 1124
0 885 -1 924 -20 998 -28 109 -63 170 -150 256 -127 128 -214 159 -462 167
l-166 6 -26 -26 c-31 -31 -33 -66 -7 -98 19 -23 25 -24 198 -29 l179 -5 76
-38 c128 -63 206 -170 228 -313 7 -47 10 -366 8 -969 l-3 -900 -23 -57 c-49
-121 -131 -206 -242 -250 -47 -19 -81 -23 -240 -27 -102 -4 -192 -10 -200 -15
-8 -6 -111 -83 -228 -173 -117 -90 -219 -166 -227 -169 -13 -5 -15 16 -15 153
0 122 -3 164 -14 179 -14 18 -34 19 -538 24 -518 5 -524 5 -580 28 l-58 23 0
427 c0 246 -5 455 -11 492 -15 100 -59 182 -134 256 l-65 64 0 437 c0 345 3
453 15 507 27 127 104 224 223 284 l76 37 594 5 594 5 19 24 c26 32 24 67 -6
96 l-24 25 -553 -1 c-304 -1 -575 -5 -603 -9z"/>
<path d="M3635 4560 c-17 -5 -45 -25 -64 -44 -29 -30 -34 -43 -42 -112 -19
-153 -45 -203 -195 -375 -64 -74 -118 -136 -120 -138 -1 -1 -13 4 -26 13 -19
14 -57 16 -248 16 -224 0 -227 0 -248 -23 -22 -23 -22 -24 -22 -501 l0 -477
25 -24 24 -25 224 0 c211 0 226 1 250 20 l26 21 40 -21 c93 -47 130 -50 567
-50 267 0 423 4 441 11 40 15 82 57 104 104 17 37 19 72 19 435 0 391 0 396
-22 440 -14 26 -41 57 -66 75 l-44 30 -214 3 c-118 2 -214 5 -214 6 0 2 9 29
20 62 45 130 45 276 0 397 -49 130 -123 184 -215 157z m76 -197 c20 -48 24
-76 24 -159 0 -98 -2 -105 -49 -222 -48 -118 -49 -121 -32 -147 9 -14 28 -30
42 -35 14 -6 136 -10 272 -10 138 0 254 -4 262 -10 13 -8 15 -62 16 -382 1
-298 -2 -378 -13 -395 l-13 -23 -389 0 c-362 0 -393 1 -455 20 -36 11 -84 35
-108 53 l-43 33 -2 300 -2 299 165 185 c91 102 180 211 200 243 44 75 73 162
81 243 3 35 9 64 13 64 4 0 18 -26 31 -57z m-641 -968 l0 -386 -127 3 -128 3
-3 370 c-1 203 0 376 3 382 3 10 38 13 130 13 l125 0 0 -385z"/>
<path d="M1182 3173 c-22 -9 -30 -37 -52 -164 -11 -68 -23 -134 -25 -146 -5
-23 -7 -23 -175 -23 -163 0 -169 -1 -184 -22 -24 -34 -20 -73 10 -97 24 -19
40 -21 176 -21 l150 0 -6 -27 c-3 -16 -11 -58 -17 -95 l-11 -68 -139 0 c-126
0 -141 -2 -159 -20 -26 -26 -26 -74 0 -100 18 -18 33 -20 145 -20 108 0 125
-2 125 -16 0 -9 -9 -72 -21 -140 -19 -114 -20 -126 -5 -148 28 -44 94 -46 116
-5 8 15 59 274 60 307 0 4 177 2 182 -3 3 -3 -5 -63 -17 -135 -18 -109 -20
-134 -9 -159 21 -50 89 -54 118 -8 7 12 24 86 36 165 l23 142 168 0 168 0 20
26 c12 15 21 34 21 44 0 10 -9 29 -21 44 l-20 26 -155 0 c-121 0 -154 3 -154
13 0 14 16 114 25 155 5 21 8 22 141 22 130 0 136 1 159 25 14 13 25 31 25 40
0 20 -19 57 -34 67 -6 4 -65 8 -132 8 -66 0 -123 2 -126 5 -3 3 3 54 13 113
26 146 25 187 -3 206 -12 9 -34 16 -49 16 -47 0 -61 -30 -89 -188 l-25 -147
-92 -3 c-51 -1 -93 1 -93 5 0 4 9 60 20 123 25 144 25 165 0 190 -19 19 -59
25 -88 13z m228 -480 c0 -12 -20 -135 -25 -160 -5 -22 -10 -23 -95 -23 -103 0
-97 -9 -78 113 l11 77 94 0 c51 0 93 -3 93 -7z"/>
<path d="M2384 1417 c-127 -48 -202 -187 -177 -326 17 -88 51 -150 123 -221
71 -69 261 -190 300 -190 29 0 194 98 267 159 186 154 215 390 65 521 -81 72
-198 88 -292 40 l-41 -21 -52 25 c-56 29 -137 34 -193 13z m130 -142 c18 -9
40 -29 49 -45 33 -55 101 -52 137 5 44 72 155 63 196 -16 21 -41 18 -122 -6
-169 -11 -22 -37 -56 -57 -76 -43 -43 -181 -134 -203 -134 -23 0 -160 92 -203
136 -54 54 -77 103 -77 164 0 62 20 104 63 130 39 24 59 25 101 5z"/>
</g>
</svg>
