<?xml version="1.0" standalone="no"?>
<!DOCTYPE svg PUBLIC "-//W3C//DTD SVG 20010904//EN"
 "http://www.w3.org/TR/2001/REC-SVG-20010904/DTD/svg10.dtd">
<svg version="1.0" xmlns="http://www.w3.org/2000/svg"
 width="400.000000pt" height="400.000000pt" viewBox="0 0 400.000000 400.000000"
 preserveAspectRatio="xMidYMid meet">

<g transform="translate(0.000000,400.000000) scale(0.100000,-0.100000)"
fill="#ff0798" stroke="none">
<path d="M1550 3363 c-230 -34 -413 -89 -580 -173 -374 -187 -694 -532 -840
-905 -98 -251 -124 -398 -124 -685 0 -235 7 -281 64 -427 42 -110 100 -194
200 -293 170 -168 369 -250 611 -250 483 0 869 387 869 871 0 326 -180 624
-469 773 -132 68 -210 87 -385 95 l-150 6 67 77 c207 237 520 393 832 416
l100 7 3 248 2 247 -87 -1 c-49 -1 -99 -3 -113 -6z"/>
<path d="M3795 3363 c-822 -107 -1439 -728 -1536 -1548 -17 -147 -7 -429 20
-530 133 -504 663 -780 1154 -602 126 46 263 143 357 252 126 146 195 321 207
520 20 352 -172 676 -491 830 -130 63 -188 76 -358 82 -82 3 -148 9 -148 14 0
5 48 58 108 117 229 230 482 348 797 371 l90 6 3 248 2 247 -87 -1 c-49 -1
-101 -4 -118 -6z"/>
</g>
</svg>
