<?xml version="1.0" standalone="no"?>
<!DOCTYPE svg PUBLIC "-//W3C//DTD SVG 20010904//EN"
 "http://www.w3.org/TR/2001/REC-SVG-20010904/DTD/svg10.dtd">
<svg version="1.0" xmlns="http://www.w3.org/2000/svg"
 width="300.000000pt" height="300.000000pt" viewBox="0 0 300.000000 300.000000"
 preserveAspectRatio="xMidYMid meet">

<g transform="translate(0.000000,300.000000) scale(0.100000,-0.100000)"
fill="#ff0798" stroke="none">
<path d="M1480 2844 c-215 -20 -482 -113 -650 -227 -219 -148 -422 -404 -513
-647 -35 -93 -68 -257 -76 -369 l-6 -96 -72 -3 c-64 -3 -75 -6 -93 -29 -11
-14 -20 -35 -20 -47 0 -11 43 -79 96 -151 52 -71 112 -155 132 -185 43 -63 77
-86 114 -77 25 7 55 43 181 220 34 48 77 108 95 133 37 54 39 72 11 108 -19
24 -27 26 -91 26 l-71 0 6 98 c7 124 35 229 92 349 118 249 327 446 575 541
132 50 199 63 355 69 125 4 166 2 245 -15 414 -86 717 -374 832 -790 18 -64
22 -105 22 -247 1 -147 -2 -181 -22 -255 -93 -341 -325 -608 -635 -729 -56
-22 -149 -49 -207 -61 -298 -62 -657 32 -883 230 -80 71 -145 87 -210 53 -40
-20 -54 -38 -67 -83 -17 -62 2 -101 84 -173 99 -86 141 -115 271 -180 115 -57
254 -106 365 -128 100 -20 396 -17 503 4 122 25 244 69 367 134 142 76 207
123 325 239 183 180 316 423 371 674 24 114 29 353 10 478 -28 186 -103 372
-223 556 -54 82 -246 277 -331 335 -153 103 -363 192 -537 224 -85 17 -271 27
-345 21z"/>
<path d="M1511 2281 c-21 -16 -25 -30 -30 -91 l-6 -72 -73 -23 c-105 -33 -164
-82 -219 -180 -25 -45 -28 -60 -28 -145 0 -104 9 -129 71 -206 38 -47 149
-108 306 -168 126 -48 179 -93 180 -152 0 -52 -17 -80 -68 -104 -56 -28 -192
-27 -302 1 -77 19 -83 19 -117 3 -49 -23 -65 -50 -65 -107 0 -40 5 -54 28 -76
29 -30 111 -55 220 -67 l62 -7 0 -53 c0 -70 13 -100 51 -119 40 -21 88 -13
118 19 18 19 24 41 29 97 l7 72 60 17 c78 21 117 43 172 93 139 128 139 388 1
499 -64 52 -102 72 -228 123 -197 81 -230 105 -230 170 0 92 120 127 304 89
61 -12 83 -13 112 -4 86 29 100 152 23 199 -18 11 -71 25 -120 32 l-87 13 -4
59 c-4 50 -9 64 -32 84 -34 29 -100 31 -135 4z"/>
</g>
</svg>
