<?xml version="1.0" standalone="no"?>
<!DOCTYPE svg PUBLIC "-//W3C//DTD SVG 20010904//EN"
 "http://www.w3.org/TR/2001/REC-SVG-20010904/DTD/svg10.dtd">
<svg version="1.0" xmlns="http://www.w3.org/2000/svg"
 width="980.000000pt" height="492.000000pt" viewBox="0 0 980.000000 492.000000"
 preserveAspectRatio="xMidYMid meet">

<g transform="translate(0.000000,492.000000) scale(0.100000,-0.100000)"
fill="#ff0798" stroke="none">
<path d="M2235 4901 c-311 -6 -321 -7 -357 -29 -73 -45 -125 -123 -148 -219
l-12 -52 -363 -3 -364 -3 -31 -30 c-61 -58 -76 -123 -44 -191 35 -74 -55 -69
1246 -72 l1167 -3 27 -32 c69 -82 65 -144 -13 -228 l-46 -49 -1463 0 -1462 0
-30 -37 c-44 -57 -53 -79 -54 -132 0 -55 15 -85 51 -101 51 -23 214 -29 801
-31 1087 -2 1742 -13 1768 -27 31 -18 62 -70 62 -105 0 -45 -26 -94 -72 -137
l-43 -40 -1087 0 -1088 0 -39 -50 c-46 -58 -58 -103 -42 -153 15 -44 50 -76
98 -89 24 -6 525 -13 1388 -17 981 -6 1358 -11 1377 -19 61 -25 84 -111 52
-191 -22 -55 -64 -69 -228 -81 -72 -5 -772 -11 -1556 -15 -783 -3 -1471 -10
-1528 -15 -122 -11 -149 -22 -179 -75 -28 -49 -29 -84 -4 -133 40 -79 -66 -71
1107 -82 577 -5 1122 -10 1210 -10 l161 0 28 -42 c66 -99 31 -195 -85 -238
-25 -9 -158 -14 -477 -19 -243 -3 -444 -8 -446 -11 -13 -13 -81 -879 -81
-1040 -1 -203 9 -237 81 -277 58 -33 151 -42 482 -45 l294 -3 27 111 c52 211
139 377 270 517 135 145 333 263 525 313 138 36 327 38 460 6 294 -73 534
-302 623 -594 28 -90 52 -219 52 -278 l0 -49 58 -8 c31 -4 727 -8 1546 -8
l1490 0 22 105 c45 216 132 373 296 538 389 392 978 424 1350 74 169 -160 262
-361 275 -595 8 -135 13 -142 96 -132 124 14 233 79 277 165 27 53 63 371 109
970 35 453 37 537 13 616 -46 152 -164 299 -712 889 -261 280 -340 353 -448
408 l-90 47 -329 1 c-444 1 -821 13 -835 27 -8 8 -4 96 17 332 32 370 31 498
-3 573 -26 57 -53 71 -174 88 -90 13 -4355 21 -4973 10z m6158 -1291 c43 -5
95 -17 115 -27 49 -23 287 -262 541 -543 243 -269 276 -308 267 -318 -10 -9
-1782 -9 -1792 1 -6 6 43 684 63 856 l6 53 361 -7 c198 -3 396 -10 439 -15z"/>
<path d="M3235 1550 c-210 -29 -429 -161 -565 -341 -247 -328 -231 -732 39
-999 220 -217 551 -260 855 -111 172 84 304 213 390 380 69 134 79 181 80 366
1 139 -2 169 -21 230 -51 162 -196 321 -371 409 -108 54 -284 83 -407 66z
m232 -431 c125 -60 205 -217 183 -356 -44 -267 -344 -435 -576 -322 -128 62
-202 215 -177 365 32 184 174 324 350 343 99 10 150 3 220 -30z"/>
<path d="M8188 1531 c-303 -82 -552 -336 -629 -640 -31 -124 -24 -282 18 -404
42 -120 85 -188 174 -278 234 -237 608 -264 936 -67 136 81 285 259 343 411
84 215 79 421 -15 612 -93 191 -258 317 -485 370 -90 20 -257 19 -342 -4z
m227 -381 c83 -12 138 -43 194 -106 62 -70 84 -139 79 -249 -5 -113 -34 -182
-113 -264 -78 -82 -150 -114 -271 -119 -123 -6 -175 12 -254 85 -109 101 -143
222 -101 360 51 169 198 283 386 302 6 0 41 -4 80 -9z"/>
</g>
</svg>
